<?xml version="1.0" encoding="utf-8"?>
<!-- Generator: Adobe Illustrator 24.1.1, SVG Export Plug-In . SVG Version: 6.00 Build 0)  -->
<svg version="1.1" xmlns="http://www.w3.org/2000/svg" xmlns:xlink="http://www.w3.org/1999/xlink" x="0px" y="0px"
	 viewBox="0 0 376.5 376.5" style="enable-background:new 0 0 376.5 376.5;" xml:space="preserve">
<g>
	<path fill="#696969" d="M316.5,376.5c-9.6,0-19.1-3.6-26.4-10.9L188.2,263.8L86.5,365.5c-14.6,14.6-38.3,14.6-52.9,0l-22.6-22.6
		c-14.6-14.6-14.6-38.3,0-52.9l101.8-101.8L10.9,86.5c-14.6-14.6-14.6-38.3,0-52.9l22.6-22.6c14.6-14.6,38.3-14.6,52.9,0
		l101.8,101.8L290,10.9c14.6-14.6,38.3-14.6,52.9,0l22.6,22.6c14.6,14.6,14.6,38.3,0,52.9L263.8,188.2L365.5,290
		c14.6,14.6,14.6,38.3,0,52.9l-22.6,22.6C335.6,372.8,326,376.5,316.5,376.5z M188.2,225.2c4.2,0,8.3,1.7,11.3,4.7l113.1,113.1
		c2.1,2.1,5.6,2.1,7.7,0l22.6-22.6c2.1-2.1,2.1-5.6,0-7.7l-113.1-113c-6.3-6.3-6.3-16.4,0-22.6L342.9,63.9c2.1-2.1,2.1-5.6,0-7.7
		l-22.6-22.6c-2.1-2.1-5.6-2.1-7.7,0l-113,113.1c-6,6-16.6,6-22.6,0L63.9,33.6c-2.1-2.1-5.6-2.1-7.7,0L33.6,56.2
		c-2.1,2.1-2.1,5.6,0,7.7l113.1,113c6.3,6.3,6.3,16.4,0,22.6L33.6,312.6c-2.1,2.1-2.1,5.6,0,7.7l22.6,22.6c2.1,2.1,5.6,2.1,7.7,0
		l113-113.1C179.9,226.8,184,225.2,188.2,225.2z"/>
	<g>
		<path fill="#ffffff" d="M56.2,342.9c2.1,2.1,5.6,2.1,7.7,0l113-113.1c3-3,7.1-4.7,11.3-4.7s8.3,1.7,11.3,4.7l113.1,113.1
			c2.1,2.1,5.6,2.1,7.7,0l22.6-22.6c2.1-2.1,2.1-5.6,0-7.7l-113.1-113c-6.3-6.3-6.3-16.4,0-22.6L342.9,63.9c2.1-2.1,2.1-5.6,0-7.7
			l-22.6-22.6c-2.1-2.1-5.6-2.1-7.7,0l-113,113.1c-6,6-16.6,6-22.6,0L63.9,33.6c-2.1-2.1-5.6-2.1-7.7,0L33.6,56.2
			c-2.1,2.1-2.1,5.6,0,7.7l113.1,113c6.3,6.3,6.3,16.4,0,22.6L33.6,312.6c-2.1,2.1-2.1,5.6,0,7.7L56.2,342.9z"/>
	</g>
</g>
</svg>
